<?xml version="1.0" standalone="no"?>
<!DOCTYPE svg PUBLIC "-//W3C//DTD SVG 1.1//EN"
"http://www.w3.org/Graphics/SVG/1.1/DTD/svg11.dtd">
<!-- Creator: fig2dev Version 3.2 Patchlevel 5d -->
<!-- CreationDate: Sun Aug 26 20:05:55 2012 -->
<!-- Magnification: 1.050 -->
<svg	xmlns="http://www.w3.org/2000/svg"
	xmlns:xlink="http://www.w3.org/1999/xlink"
	width="4.6in" height="3.8in"
	viewBox="1491 576 5549 4538">
<g style="stroke-width:.025in; fill:none">
<!-- Circle -->
<circle cx="3070" cy="1181" r="141"
 style="fill:#000000;stroke:#000000;stroke-width:8;"/>
<!-- Circle -->
<circle cx="4488" cy="3070" r="141"
 style="fill:#000000;stroke:#000000;stroke-width:8;"/>
<!-- Circle -->
<circle cx="5196" cy="4015" r="141"
 style="fill:#000000;stroke:#000000;stroke-width:8;"/>
<!-- Circle -->
<circle cx="2362" cy="3307" r="141"
 style="fill:#000000;stroke:#000000;stroke-width:8;"/>
<!-- Circle -->
<circle cx="5433" cy="1181" r="141"
 style="fill:#000000;stroke:#000000;stroke-width:8;"/>
<!-- Line -->
<polyline points="3070,2598
4488,1653
" style="stroke:#00d1d1;stroke-width:142;
stroke-linejoin:miter; stroke-linecap:butt;
"/>
<!-- Line -->
<polyline points="3070,1181
4488,3070
" style="stroke:#000000;stroke-width:63;
stroke-linejoin:miter; stroke-linecap:butt;
"/>
<!-- Line -->
<polyline points="5669,4724
5669,4722
5669,4718
5669,4710
5669,4699
5669,4682
5668,4661
5668,4634
5668,4602
5667,4565
5666,4523
5664,4478
5662,4431
5660,4380
5657,4327
5654,4274
5650,4219
5646,4164
5640,4111
5634,4056
5627,4004
5617,3951
5608,3901
5596,3851
5584,3803
5569,3758
5552,3714
5532,3672
5511,3633
5487,3598
5461,3568
5433,3543
5404,3525
5375,3512
5344,3504
5314,3500
5285,3499
5255,3502
5227,3506
5198,3513
5171,3522
5145,3531
5120,3543
5095,3554
5071,3567
5047,3580
5024,3593
5002,3607
4980,3622
4958,3636
4936,3652
4915,3668
4894,3685
4873,3702
4852,3720
4832,3740
4813,3761
4794,3783
4776,3806
4761,3832
4746,3858
4734,3886
4726,3917
4721,3948
4720,3981
4724,4015
4734,4052
4750,4090
4771,4127
4796,4163
4826,4198
4857,4232
4892,4265
4929,4297
4967,4328
5008,4358
5050,4387
5095,4416
5140,4445
5185,4472
5231,4498
5277,4524
5323,4550
5369,4574
5413,4597
5455,4619
5493,4638
5529,4657
5562,4672
5590,4686
5613,4698
5632,4706
5647,4713
5657,4719
5664,4722
5667,4723
5669,4724
" style="stroke:#00d1d1;stroke-width:142;
stroke-linejoin:bevel; stroke-linecap:butt;
"/>
<!-- Line -->
<polyline points="4488,1653
4489,1653
4491,1654
4496,1656
4502,1658
4513,1662
4527,1668
4543,1675
4564,1683
4588,1693
4617,1704
4649,1718
4684,1733
4723,1750
4764,1769
4807,1788
4852,1809
4899,1833
4948,1857
4997,1882
5047,1909
5098,1938
5148,1967
5197,1998
5248,2031
5298,2066
5348,2102
5396,2140
5445,2181
5492,2224
5540,2270
5586,2320
5631,2371
5676,2427
5719,2487
5761,2549
5801,2616
5839,2685
5874,2759
5905,2834
5931,2908
5953,2982
5972,3057
5988,3130
6000,3203
6008,3273
6013,3343
6015,3412
6016,3478
6014,3543
6009,3607
6003,3669
5995,3730
5985,3791
5973,3849
5961,3908
5947,3965
5932,4022
5917,4077
5900,4132
5883,4185
5865,4237
5847,4287
5829,4337
5813,4383
5795,4428
5778,4470
5762,4509
5748,4545
5734,4578
5720,4607
5710,4634
5699,4656
5691,4675
5685,4690
5679,4702
5675,4710
5672,4717
5670,4721
5669,4723
5669,4724
" style="stroke:#00d1d1;stroke-width:142;
stroke-linejoin:bevel; stroke-linecap:butt;
"/>
<!-- Line -->
<polyline points="3070,2598
3070,2599
3070,2601
3070,2606
3071,2613
3072,2623
3074,2637
3075,2654
3076,2675
3079,2700
3081,2729
3084,2762
3088,2797
3092,2836
3098,2878
3104,2923
3110,2971
3119,3020
3127,3070
3137,3122
3148,3175
3160,3229
3173,3283
3188,3338
3205,3394
3223,3449
3243,3505
3266,3562
3290,3618
3317,3675
3348,3733
3380,3791
3417,3848
3457,3907
3501,3966
3548,4025
3600,4082
3656,4140
3716,4197
3779,4251
3842,4301
3907,4347
3972,4390
4038,4429
4104,4466
4171,4498
4236,4528
4301,4555
4365,4578
4428,4600
4491,4619
4553,4636
4614,4650
4675,4664
4735,4676
4795,4685
4855,4693
4914,4701
4972,4707
5029,4712
5086,4717
5141,4720
5195,4723
5247,4725
5297,4726
5345,4727
5391,4728
5434,4728
5472,4728
5509,4728
5541,4727
5569,4727
5594,4726
5614,4726
5631,4725
5645,4725
5654,4725
5661,4724
5666,4724
5668,4724
5669,4724
" style="stroke:#00d1d1;stroke-width:142;
stroke-linejoin:bevel; stroke-linecap:butt;
"/>
<!-- Line -->
<polyline points="5669,4724
5668,4724
5664,4725
5657,4727
5648,4730
5633,4734
5614,4741
5590,4747
5561,4756
5525,4766
5484,4777
5439,4790
5387,4804
5333,4818
5274,4833
5213,4849
5148,4865
5083,4880
5015,4896
4948,4911
4879,4924
4811,4938
4744,4950
4678,4961
4613,4972
4549,4980
4487,4987
4426,4993
4367,4998
4309,5001
4253,5002
4197,5002
4143,5001
4091,4998
4038,4994
3987,4987
3937,4980
3886,4971
3836,4960
3785,4948
3735,4934
3685,4918
3633,4900
3583,4881
3534,4862
3486,4843
3438,4822
3388,4798
3339,4775
3289,4750
3237,4724
3186,4696
3134,4667
3082,4637
3029,4605
2976,4573
2922,4539
2869,4504
2815,4469
2761,4432
2707,4394
2654,4355
2600,4317
2548,4277
2495,4236
2444,4195
2392,4153
2342,4112
2292,4070
2244,4028
2198,3986
2152,3943
2108,3902
2065,3860
2024,3819
1984,3778
1946,3737
1910,3697
1876,3658
1844,3620
1814,3583
1785,3546
1759,3509
1734,3475
1712,3440
1692,3407
1674,3375
1657,3343
1644,3313
1631,3283
1622,3255
1614,3228
1607,3196
1604,3166
1604,3137
1607,3108
1614,3082
1625,3056
1639,3032
1658,3007
1680,2985
1707,2962
1737,2941
1772,2920
1811,2900
1855,2880
1902,2860
1953,2841
2009,2823
2068,2805
2131,2786
2197,2769
2265,2751
2337,2734
2408,2719
2480,2703
2553,2688
2623,2675
2690,2662
2754,2650
2814,2640
2869,2630
2916,2622
2957,2616
2992,2609
3019,2605
3040,2602
3054,2600
3063,2599
3068,2598
3070,2598
" style="stroke:#00d1d1;stroke-width:142;
stroke-linejoin:bevel; stroke-linecap:butt;
"/>
<!-- Line -->
<polyline points="5669,4724
5670,4723
5674,4722
5680,4719
5691,4713
5706,4706
5724,4697
5750,4685
5779,4669
5814,4651
5854,4632
5897,4608
5945,4582
5995,4554
6049,4523
6104,4492
6161,4458
6218,4423
6275,4387
6329,4350
6384,4313
6436,4276
6487,4238
6534,4200
6580,4161
6622,4123
6662,4085
6699,4046
6732,4007
6763,3968
6791,3928
6816,3888
6839,3847
6858,3805
6876,3762
6891,3719
6902,3674
6912,3627
6919,3580
6924,3529
6928,3478
6929,3425
6928,3380
6927,3335
6923,3288
6919,3240
6913,3191
6907,3141
6899,3089
6890,3037
6879,2982
6868,2928
6855,2871
6841,2814
6827,2755
6811,2697
6794,2637
6775,2576
6756,2514
6737,2452
6716,2390
6692,2327
6669,2264
6646,2201
6621,2137
6596,2074
6570,2012
6542,1949
6515,1887
6488,1826
6459,1765
6430,1706
6401,1648
6371,1590
6342,1533
6311,1479
6281,1425
6251,1373
6221,1322
6191,1273
6160,1226
6131,1181
6100,1138
6071,1096
6041,1056
6012,1018
5983,982
5954,949
5925,916
5898,887
5869,858
5842,833
5814,809
5787,787
5752,762
5717,740
5682,722
5649,707
5614,697
5580,690
5545,688
5510,689
5475,695
5439,703
5402,717
5364,733
5325,754
5286,780
5244,808
5202,840
5159,877
5114,917
5069,960
5023,1006
4976,1055
4930,1105
4882,1156
4837,1210
4792,1262
4749,1315
4708,1365
4669,1414
4635,1458
4603,1499
4575,1535
4552,1566
4532,1592
4516,1613
4504,1629
4497,1640
4492,1648
4489,1651
4488,1653
" style="stroke:#00d1d1;stroke-width:142;
stroke-linejoin:bevel; stroke-linecap:butt;
"/>
<!-- Circle -->
<circle cx="5669" cy="4724" r="236"
 style="fill:#008f8f;stroke:#008f8f;stroke-width:8;"/>
<!-- Circle -->
<circle cx="4488" cy="1653" r="236"
 style="fill:#008f8f;stroke:#008f8f;stroke-width:8;"/>
<!-- Circle -->
<circle cx="3070" cy="2598" r="236"
 style="fill:#008f8f;stroke:#008f8f;stroke-width:8;"/>
<!-- Line -->
<polyline points="3070,1181
2362,3307
" style="stroke:#000000;stroke-width:63;
stroke-linejoin:miter; stroke-linecap:butt;
"/>
<!-- Line -->
<polyline points="2409,3307
4488,3070
" style="stroke:#000000;stroke-width:63;
stroke-linejoin:miter; stroke-linecap:butt;
"/>
<!-- Line -->
<polyline points="4535,3070
5433,1181
" style="stroke:#000000;stroke-width:63;
stroke-linejoin:miter; stroke-linecap:butt;
"/>
<!-- Line -->
<polyline points="5433,1181
3118,1181
" style="stroke:#000000;stroke-width:63;
stroke-linejoin:miter; stroke-linecap:butt;
"/>
<!-- Line -->
<polyline points="4488,3070
5196,4015
" style="stroke:#000000;stroke-width:63;
stroke-linejoin:miter; stroke-linecap:butt;
"/>
</g>
</svg>
